<?xml version="1.0" encoding="UTF-8"?>
<svg width="700pt" height="700pt" version="1.1" viewBox="0 0 700 700" xmlns="http://www.w3.org/2000/svg" xmlns:xlink="http://www.w3.org/1999/xlink">
 <defs>
  <symbol id="z" overflow="visible">
   <path d="m3.125-0.1875c-0.16797 0.085938-0.33984 0.14844-0.51562 0.1875-0.16797 0.039062-0.34375 0.0625-0.53125 0.0625-0.57422 0-1.0273-0.15625-1.3594-0.46875-0.32422-0.3125-0.48438-0.73828-0.48438-1.2812 0-0.53906 0.16016-0.96875 0.48438-1.2812 0.33203-0.32031 0.78516-0.48438 1.3594-0.48438 0.1875 0 0.36328 0.023437 0.53125 0.0625 0.17578 0.042969 0.34766 0.10547 0.51562 0.1875v0.70312c-0.16797-0.11328-0.32812-0.19531-0.48438-0.25-0.15625-0.050781-0.32422-0.078125-0.5-0.078125-0.3125 0-0.55859 0.10547-0.73438 0.3125-0.17969 0.19922-0.26562 0.47656-0.26562 0.82812 0 0.34375 0.085937 0.62109 0.26562 0.82812 0.17578 0.19922 0.42188 0.29688 0.73438 0.29688 0.17578 0 0.34375-0.023438 0.5-0.078125 0.15625-0.050781 0.31641-0.13281 0.48438-0.25z"/>
  </symbol>
  <symbol id="c" overflow="visible">
   <path d="m2.2812-1.8594c-0.074219-0.03125-0.14844-0.050781-0.21875-0.0625-0.0625-0.019531-0.13281-0.03125-0.20312-0.03125-0.21094 0-0.37109 0.070313-0.48438 0.20312-0.11719 0.13672-0.17188 0.32812-0.17188 0.57812v1.1719h-0.8125v-2.5469h0.8125v0.42188c0.10156-0.16406 0.22266-0.28516 0.35938-0.35938 0.13281-0.082031 0.29688-0.125 0.48438-0.125 0.03125 0 0.0625 0.007813 0.09375 0.015625h0.14062z"/>
  </symbol>
  <symbol id="a" overflow="visible">
   <path d="m2.9375-1.2812v0.23438h-1.9062c0.019531 0.1875 0.085938 0.33594 0.20312 0.4375 0.125 0.09375 0.28906 0.14062 0.5 0.14062 0.16406 0 0.33594-0.023438 0.51562-0.078125 0.1875-0.050781 0.375-0.12891 0.5625-0.23438v0.625c-0.1875 0.074219-0.38281 0.125-0.57812 0.15625-0.1875 0.039062-0.38281 0.0625-0.57812 0.0625-0.46094 0-0.82031-0.11328-1.0781-0.34375-0.25-0.23828-0.375-0.56641-0.375-0.98438 0-0.41406 0.125-0.74219 0.375-0.98438 0.25-0.23828 0.59375-0.35938 1.0312-0.35938 0.40625 0 0.72656 0.12109 0.96875 0.35938 0.23828 0.24219 0.35938 0.5625 0.35938 0.96875zm-0.84375-0.26562c0-0.15625-0.046875-0.28125-0.14062-0.375-0.085937-0.09375-0.19922-0.14062-0.34375-0.14062-0.15625 0-0.28906 0.046875-0.39062 0.14062-0.09375 0.085937-0.15625 0.21094-0.1875 0.375z"/>
  </symbol>
  <symbol id="l" overflow="visible">
   <path d="m1.5312-1.1406c-0.16797 0-0.29688 0.03125-0.39062 0.09375-0.085937 0.054687-0.125 0.13281-0.125 0.23438 0 0.10547 0.035156 0.1875 0.10938 0.25 0.070312 0.0625 0.16406 0.09375 0.28125 0.09375 0.15625 0 0.28516-0.054688 0.39062-0.17188 0.10156-0.11328 0.15625-0.25 0.15625-0.40625v-0.09375zm1.25-0.3125v1.4531h-0.82812v-0.375c-0.10547 0.15625-0.23047 0.27344-0.375 0.34375-0.13672 0.0625-0.29688 0.09375-0.48438 0.09375-0.27344 0-0.49219-0.070312-0.65625-0.21875-0.15625-0.15625-0.23438-0.35938-0.23438-0.60938 0-0.30078 0.097656-0.51953 0.29688-0.65625 0.20703-0.13281 0.53125-0.20312 0.96875-0.20312h0.48438v-0.0625c0-0.13281-0.054687-0.22656-0.15625-0.28125-0.09375-0.0625-0.25-0.09375-0.46875-0.09375-0.17969 0-0.34375 0.015625-0.5 0.046875-0.14844 0.03125-0.28125 0.085937-0.40625 0.15625v-0.625c0.17578-0.039063 0.35156-0.070313 0.53125-0.09375 0.17578-0.019531 0.34766-0.03125 0.51562-0.03125 0.46875 0 0.80078 0.09375 1 0.28125 0.20703 0.17969 0.3125 0.46875 0.3125 0.875z"/>
  </symbol>
  <symbol id="b" overflow="visible">
   <path d="m1.2812-3.2656v0.71875h0.84375v0.57812h-0.84375v1.0781c0 0.125 0.019531 0.21094 0.0625 0.25 0.050781 0.042969 0.14453 0.0625 0.28125 0.0625h0.42188v0.57812h-0.70312c-0.3125 0-0.53906-0.066406-0.67188-0.20312-0.13672-0.13281-0.20312-0.36328-0.20312-0.6875v-1.0781h-0.40625v-0.57812h0.40625v-0.71875z"/>
  </symbol>
  <symbol id="k" overflow="visible">
   <path d="m2.125-2.1719v-1.3594h0.8125v3.5312h-0.8125v-0.375c-0.11719 0.15625-0.24219 0.27344-0.375 0.34375-0.13672 0.0625-0.29297 0.09375-0.46875 0.09375-0.3125 0-0.57422-0.125-0.78125-0.375-0.19922-0.25-0.29688-0.56641-0.29688-0.95312 0-0.39453 0.097656-0.71875 0.29688-0.96875 0.20703-0.25 0.46875-0.375 0.78125-0.375 0.17578 0 0.33203 0.039063 0.46875 0.10938 0.13281 0.074219 0.25781 0.18359 0.375 0.32812zm-0.53125 1.6406c0.16406 0 0.29688-0.0625 0.39062-0.1875s0.14062-0.30469 0.14062-0.54688c0-0.25-0.046875-0.4375-0.14062-0.5625s-0.22656-0.1875-0.39062-0.1875c-0.17969 0-0.3125 0.0625-0.40625 0.1875s-0.14062 0.3125-0.14062 0.5625c0 0.24219 0.046875 0.42188 0.14062 0.54688s0.22656 0.1875 0.40625 0.1875z"/>
  </symbol>
  <symbol id="j" overflow="visible">
   <path d="m1.75-0.53125c0.16406 0 0.29688-0.0625 0.39062-0.1875s0.14062-0.30469 0.14062-0.54688c0-0.25-0.046875-0.4375-0.14062-0.5625s-0.22656-0.1875-0.39062-0.1875c-0.17969 0-0.3125 0.070313-0.40625 0.20312-0.09375 0.125-0.14062 0.30859-0.14062 0.54688 0 0.24219 0.046875 0.42188 0.14062 0.54688s0.22656 0.1875 0.40625 0.1875zm-0.54688-1.6406c0.11328-0.14453 0.23828-0.25391 0.375-0.32812 0.13281-0.070312 0.28906-0.10938 0.46875-0.10938 0.3125 0 0.56641 0.125 0.76562 0.375 0.20703 0.25 0.3125 0.57422 0.3125 0.96875 0 0.38672-0.10547 0.70312-0.3125 0.95312-0.19922 0.25-0.45312 0.375-0.76562 0.375-0.17969 0-0.33594-0.03125-0.46875-0.09375-0.13672-0.070312-0.26172-0.1875-0.375-0.34375v0.375h-0.8125v-3.5312h0.8125z"/>
  </symbol>
  <symbol id="i" overflow="visible">
   <path d="m0.0625-2.5469h0.8125l0.6875 1.7344 0.57812-1.7344h0.8125l-1.0781 2.7812c-0.10547 0.28906-0.23047 0.48828-0.375 0.59375-0.13672 0.11328-0.32422 0.17188-0.5625 0.17188h-0.46875v-0.53125h0.25c0.13281 0 0.23438-0.023438 0.29688-0.0625 0.0625-0.042969 0.11328-0.12109 0.15625-0.23438l0.015625-0.078125z"/>
  </symbol>
  <symbol id="h" overflow="visible">
   <path d="m2.0781 0.0625h-0.078125c-0.55469 0-0.98438-0.14844-1.2969-0.45312-0.3125-0.3125-0.46875-0.74219-0.46875-1.2969 0-0.55078 0.14844-0.98438 0.45312-1.2969 0.3125-0.3125 0.74219-0.46875 1.2969-0.46875 0.53906 0 0.96094 0.15625 1.2656 0.46875 0.3125 0.30469 0.46875 0.73438 0.46875 1.2969 0 0.375-0.085938 0.70312-0.25 0.98438-0.15625 0.27344-0.38672 0.48047-0.6875 0.625l0.67188 0.76562h-0.82812zm-0.09375-2.8906c-0.27344 0-0.48047 0.10156-0.625 0.29688-0.14844 0.19922-0.21875 0.48047-0.21875 0.84375 0 0.36719 0.066406 0.64844 0.20312 0.84375 0.14453 0.1875 0.35938 0.28125 0.64062 0.28125 0.25781 0 0.46094-0.097656 0.60938-0.29688 0.15625-0.19531 0.23438-0.47266 0.23438-0.82812 0-0.36328-0.078125-0.64453-0.23438-0.84375-0.14844-0.19531-0.35156-0.29688-0.60938-0.29688z"/>
  </symbol>
  <symbol id="y" overflow="visible">
   <path d="m1.9844-2.8281c-0.27344 0-0.48047 0.10156-0.625 0.29688-0.14844 0.19922-0.21875 0.48047-0.21875 0.84375 0 0.35547 0.070313 0.63281 0.21875 0.82812 0.14453 0.19922 0.35156 0.29688 0.625 0.29688 0.25781 0 0.46094-0.097656 0.60938-0.29688 0.15625-0.19531 0.23438-0.47266 0.23438-0.82812 0-0.36328-0.078125-0.64453-0.23438-0.84375-0.14844-0.19531-0.35156-0.29688-0.60938-0.29688zm0-0.625c0.53906 0 0.96094 0.15625 1.2656 0.46875 0.3125 0.3125 0.46875 0.74609 0.46875 1.2969 0 0.54297-0.15625 0.96875-0.46875 1.2812-0.30469 0.3125-0.72656 0.46875-1.2656 0.46875-0.55469 0-0.98438-0.15625-1.2969-0.46875-0.30469-0.3125-0.45312-0.73828-0.45312-1.2812 0-0.55078 0.14844-0.98438 0.45312-1.2969 0.3125-0.3125 0.74219-0.46875 1.2969-0.46875z"/>
  </symbol>
  <symbol id="g" overflow="visible">
   <path d="m0.42188-3.3906h0.875v2.7344h1.5469v0.65625h-2.4219z"/>
  </symbol>
  <symbol id="x" overflow="visible">
   <path d="m1.7812-2.0781c0.14453 0 0.25-0.03125 0.3125-0.09375 0.070312-0.0625 0.10938-0.14844 0.10938-0.26562 0-0.11328-0.039063-0.20312-0.10938-0.26562-0.0625-0.0625-0.16797-0.09375-0.3125-0.09375h-0.48438v0.71875zm0.03125 1.4844c0.17578 0 0.30469-0.035156 0.39062-0.10938 0.09375-0.070313 0.14062-0.1875 0.14062-0.34375 0-0.14453-0.046875-0.25391-0.14062-0.32812-0.085937-0.070312-0.21484-0.10938-0.39062-0.10938h-0.51562v0.89062zm0.8125-1.2188c0.1875 0.054688 0.33203 0.15234 0.4375 0.29688 0.10156 0.14844 0.15625 0.32812 0.15625 0.54688 0 0.32422-0.10938 0.57031-0.32812 0.73438-0.21875 0.15625-0.55859 0.23438-1.0156 0.23438h-1.4531v-3.3906h1.3125c0.47656 0 0.82031 0.074219 1.0312 0.21875 0.20703 0.13672 0.3125 0.35938 0.3125 0.67188 0 0.16797-0.042969 0.30859-0.125 0.42188-0.074219 0.11719-0.18359 0.20312-0.32812 0.26562z"/>
  </symbol>
  <symbol id="e" overflow="visible">
   <path d="m0.42188-3.3906h0.875v3.3906h-0.875z"/>
  </symbol>
  <symbol id="f" overflow="visible">
   <path d="m0.42188-3.3906h0.98438l1.2344 2.3281v-2.3281h0.82812v3.3906h-0.98438l-1.2344-2.3281v2.3281h-0.82812z"/>
  </symbol>
  <symbol id="w" overflow="visible">
   <path d="m2.7969-3.2812v0.71875c-0.1875-0.082031-0.37109-0.14453-0.54688-0.1875-0.17969-0.050781-0.35156-0.078125-0.51562-0.078125-0.21094 0-0.36719 0.03125-0.46875 0.09375-0.09375 0.054687-0.14062 0.14062-0.14062 0.26562 0 0.09375 0.03125 0.16797 0.09375 0.21875 0.070312 0.054688 0.19531 0.09375 0.375 0.125l0.375 0.078125c0.375 0.074219 0.64062 0.1875 0.79688 0.34375 0.16406 0.15625 0.25 0.375 0.25 0.65625 0 0.375-0.11719 0.65625-0.34375 0.84375-0.21875 0.17969-0.55859 0.26562-1.0156 0.26562-0.21094 0-0.42188-0.023438-0.64062-0.0625s-0.4375-0.097656-0.65625-0.17188v-0.75c0.21875 0.11719 0.42578 0.20312 0.625 0.26562 0.20703 0.0625 0.40625 0.09375 0.59375 0.09375s0.33203-0.03125 0.4375-0.09375c0.10156-0.070312 0.15625-0.16406 0.15625-0.28125 0-0.10156-0.039063-0.17969-0.10938-0.23438-0.0625-0.0625-0.19922-0.11719-0.40625-0.17188l-0.34375-0.0625c-0.33594-0.070312-0.58594-0.1875-0.75-0.34375-0.15625-0.16406-0.23438-0.38281-0.23438-0.65625 0-0.33203 0.10938-0.58594 0.32812-0.76562 0.21875-0.1875 0.53516-0.28125 0.95312-0.28125 0.17578 0 0.36328 0.015625 0.5625 0.046875 0.19531 0.023438 0.40625 0.0625 0.625 0.125z"/>
  </symbol>
  <symbol id="v" overflow="visible">
   <path d="m2.4844-0.625h-1.3594l-0.21875 0.625h-0.89062l1.2656-3.3906h1.0469l1.25 3.3906h-0.875zm-1.1406-0.625h0.92188l-0.46875-1.3438z"/>
  </symbol>
  <symbol id="u" overflow="visible">
   <path d="m0.42188-3.3906h1.125l0.76562 1.8125 0.78125-1.8125h1.1094v3.3906h-0.82812v-2.4844l-0.78125 1.8281h-0.54688l-0.79688-1.8281v2.4844h-0.82812z"/>
  </symbol>
  <symbol id="t" overflow="visible">
   <path d="m2.0625-3.5312v0.53125h-0.45312c-0.11719 0-0.19531 0.023438-0.23438 0.0625-0.042969 0.042969-0.0625 0.11719-0.0625 0.21875v0.17188h0.6875v0.57812h-0.6875v1.9688h-0.8125v-1.9688h-0.40625v-0.57812h0.40625v-0.17188c0-0.28125 0.070312-0.48438 0.21875-0.60938 0.15625-0.13281 0.39453-0.20312 0.71875-0.20312z"/>
  </symbol>
  <symbol id="d" overflow="visible">
   <path d="m1.6094-2.0312c-0.1875 0-0.32812 0.070312-0.42188 0.20312-0.09375 0.125-0.14062 0.3125-0.14062 0.5625 0 0.24219 0.046875 0.42969 0.14062 0.5625 0.09375 0.125 0.23438 0.1875 0.42188 0.1875 0.17578 0 0.3125-0.0625 0.40625-0.1875 0.09375-0.13281 0.14062-0.32031 0.14062-0.5625 0-0.25-0.046875-0.4375-0.14062-0.5625-0.09375-0.13281-0.23047-0.20312-0.40625-0.20312zm0-0.57812c0.4375 0 0.77344 0.12109 1.0156 0.35938 0.25 0.24219 0.375 0.57031 0.375 0.98438 0 0.41797-0.125 0.74609-0.375 0.98438-0.24219 0.23047-0.57812 0.34375-1.0156 0.34375-0.44922 0-0.79688-0.11328-1.0469-0.34375-0.24219-0.23828-0.35938-0.56641-0.35938-0.98438 0-0.41406 0.11719-0.74219 0.35938-0.98438 0.25-0.23828 0.59766-0.35938 1.0469-0.35938z"/>
  </symbol>
  <symbol id="s" overflow="visible">
   <path d="m2.75-2.125c0.10156-0.15625 0.22266-0.27344 0.35938-0.35938 0.14453-0.082031 0.30078-0.125 0.46875-0.125 0.30078 0 0.52344 0.09375 0.67188 0.28125 0.15625 0.17969 0.23438 0.4375 0.23438 0.78125v1.5469h-0.8125v-1.3281-0.0625-0.09375c0-0.17578-0.027344-0.30469-0.078125-0.39062-0.054688-0.082031-0.14062-0.125-0.26562-0.125-0.15625 0-0.27734 0.070312-0.35938 0.20312-0.085938 0.125-0.125 0.30859-0.125 0.54688v1.25h-0.8125v-1.3281c0-0.28125-0.027344-0.46094-0.078125-0.54688-0.054687-0.082031-0.14062-0.125-0.26562-0.125-0.15625 0-0.27734 0.070312-0.35938 0.20312-0.085937 0.125-0.125 0.30859-0.125 0.54688v1.25h-0.8125v-2.5469h0.8125v0.375c0.10156-0.14453 0.21875-0.25391 0.34375-0.32812 0.13281-0.070312 0.28125-0.10938 0.4375-0.10938 0.16406 0 0.31641 0.042969 0.45312 0.125 0.13281 0.085937 0.23828 0.20312 0.3125 0.35938z"/>
  </symbol>
  <symbol id="r" overflow="visible">
   <path d="m2.9531-1.5469v1.5469h-0.82812v-1.1875c0-0.21875-0.007812-0.36719-0.015625-0.45312 0-0.082031-0.015625-0.14453-0.046875-0.1875-0.03125-0.050781-0.074219-0.09375-0.125-0.125-0.054688-0.03125-0.11719-0.046875-0.1875-0.046875-0.16797 0-0.30469 0.070312-0.40625 0.20312-0.09375 0.13672-0.14062 0.32031-0.14062 0.54688v1.25h-0.8125v-3.5312h0.8125v1.3594c0.125-0.14453 0.25391-0.25391 0.39062-0.32812 0.13281-0.070312 0.28516-0.10938 0.45312-0.10938 0.30078 0 0.52344 0.09375 0.67188 0.28125 0.15625 0.17969 0.23438 0.4375 0.23438 0.78125z"/>
  </symbol>
  <symbol id="q" overflow="visible">
   <path d="m0.35938-0.98438v-1.5625h0.82812v0.25c0 0.14844-0.007812 0.32422-0.015625 0.53125v0.40625c0 0.21094 0.003906 0.35938 0.015625 0.45312 0.007812 0.085938 0.03125 0.14844 0.0625 0.1875 0.03125 0.054688 0.070312 0.09375 0.125 0.125 0.050781 0.03125 0.11328 0.046875 0.1875 0.046875 0.16406 0 0.29688-0.0625 0.39062-0.1875 0.10156-0.13281 0.15625-0.32031 0.15625-0.5625v-1.25h0.8125v2.5469h-0.8125v-0.375c-0.125 0.15625-0.25781 0.27344-0.39062 0.34375-0.13672 0.0625-0.28906 0.09375-0.45312 0.09375-0.29297 0-0.51562-0.085938-0.67188-0.26562-0.15625-0.17578-0.23438-0.4375-0.23438-0.78125z"/>
  </symbol>
  <symbol id="p" overflow="visible">
   <path d="m2.9531-1.5469v1.5469h-0.82812v-1.1875c0-0.21875-0.007812-0.36719-0.015625-0.45312 0-0.082031-0.015625-0.14453-0.046875-0.1875-0.03125-0.050781-0.074219-0.09375-0.125-0.125-0.054688-0.03125-0.11719-0.046875-0.1875-0.046875-0.16797 0-0.30469 0.070312-0.40625 0.20312-0.09375 0.13672-0.14062 0.32031-0.14062 0.54688v1.25h-0.8125v-2.5469h0.8125v0.375c0.125-0.14453 0.25391-0.25391 0.39062-0.32812 0.13281-0.070312 0.28516-0.10938 0.45312-0.10938 0.30078 0 0.52344 0.09375 0.67188 0.28125 0.15625 0.17969 0.23438 0.4375 0.23438 0.78125z"/>
  </symbol>
  <symbol id="o" overflow="visible">
   <path d="m0.42188-3.3906h1.4531c0.4375 0 0.76953 0.10156 1 0.29688 0.22656 0.1875 0.34375 0.46094 0.34375 0.8125 0 0.35547-0.11719 0.63281-0.34375 0.82812-0.23047 0.1875-0.5625 0.28125-1 0.28125h-0.57812v1.1719h-0.875zm0.875 0.625v0.95312h0.48438c0.17578 0 0.30469-0.039062 0.39062-0.125 0.09375-0.082031 0.14062-0.19531 0.14062-0.34375 0-0.15625-0.046875-0.27344-0.14062-0.35938-0.085937-0.082031-0.21484-0.125-0.39062-0.125z"/>
  </symbol>
  <symbol id="n" overflow="visible">
   <path d="m0.39062-2.5469h0.8125v2.5c0 0.34375-0.085937 0.60156-0.25 0.78125-0.15625 0.17578-0.39062 0.26562-0.70312 0.26562h-0.40625v-0.53125h0.14062c0.15625 0 0.25781-0.039062 0.3125-0.10938 0.0625-0.0625 0.09375-0.19922 0.09375-0.40625zm0-0.98438h0.8125v0.65625h-0.8125z"/>
  </symbol>
  <symbol id="m" overflow="visible">
   <path d="m2.4531-2.4688v0.67188c-0.11719-0.082031-0.23047-0.14062-0.34375-0.17188-0.10547-0.039062-0.21875-0.0625-0.34375-0.0625-0.23047 0-0.40625 0.070312-0.53125 0.20312-0.125 0.13672-0.1875 0.32422-0.1875 0.5625 0 0.24219 0.0625 0.42969 0.1875 0.5625 0.125 0.125 0.30078 0.1875 0.53125 0.1875 0.125 0 0.24219-0.015625 0.35938-0.046875 0.11328-0.039062 0.22266-0.097656 0.32812-0.17188v0.65625c-0.13672 0.054688-0.27344 0.085938-0.40625 0.10938-0.125 0.019531-0.25 0.03125-0.375 0.03125-0.46094 0-0.82031-0.11328-1.0781-0.34375-0.26172-0.23828-0.39062-0.56641-0.39062-0.98438 0-0.42578 0.12891-0.75391 0.39062-0.98438 0.25781-0.23828 0.61719-0.35938 1.0781-0.35938 0.125 0 0.25 0.015625 0.375 0.046875 0.13281 0.023438 0.26953 0.054688 0.40625 0.09375z"/>
  </symbol>
 </defs>
 <g>
  <path d="m55.926 5.125h588.15c30.758 0 55.926 25.168 55.926 55.926 0 30.758-25.168 55.926-55.926 55.926h-588.15c-30.758 0-55.926-25.168-55.926-55.926 0-30.758 25.168-55.926 55.926-55.926z" fill-rule="evenodd"/>
  <path d="m55.926 225.1h588.15c30.758 0 55.926 25.168 55.926 55.926 0 30.758-25.168 55.926-55.926 55.926h-588.15c-30.758 0-55.926-25.168-55.926-55.926 0-30.758 25.168-55.926 55.926-55.926z" fill-rule="evenodd"/>
  <path d="m55.926 445.07h588.15c30.758 0 55.926 25.168 55.926 55.926s-25.168 55.926-55.926 55.926h-588.15c-30.758 0-55.926-25.168-55.926-55.926s25.168-55.926 55.926-55.926z" fill-rule="evenodd"/>
  <use y="570.90625" xlink:href="#z"/>
  <use x="3.421875" y="570.90625" xlink:href="#c"/>
  <use x="5.71875" y="570.90625" xlink:href="#a"/>
  <use x="8.878906" y="570.90625" xlink:href="#l"/>
  <use x="12.023438" y="570.90625" xlink:href="#b"/>
  <use x="14.253906" y="570.90625" xlink:href="#a"/>
  <use x="17.414063" y="570.90625" xlink:href="#k"/>
  <use x="22.371094" y="570.90625" xlink:href="#j"/>
  <use x="25.707031" y="570.90625" xlink:href="#i"/>
  <use x="30.367188" y="570.90625" xlink:href="#h"/>
  <use x="34.328125" y="570.90625" xlink:href="#y"/>
  <use x="38.292969" y="570.90625" xlink:href="#g"/>
  <use x="41.261719" y="570.90625" xlink:href="#x"/>
  <use x="44.8125" y="570.90625" xlink:href="#e"/>
  <use x="46.546875" y="570.90625" xlink:href="#f"/>
  <use x="52.070312" y="570.90625" xlink:href="#w"/>
  <use x="55.425781" y="570.90625" xlink:href="#v"/>
  <use x="59.035156" y="570.90625" xlink:href="#g"/>
  <use x="62.003906" y="570.90625" xlink:href="#e"/>
  <use x="63.738281" y="570.90625" xlink:href="#e"/>
  <use x="65.472656" y="570.90625" xlink:href="#u"/>
  <use y="575.566406" xlink:href="#t"/>
  <use x="2.027344" y="575.566406" xlink:href="#c"/>
  <use x="4.324219" y="575.566406" xlink:href="#d"/>
  <use x="7.527344" y="575.566406" xlink:href="#s"/>
  <use x="14.007812" y="575.566406" xlink:href="#b"/>
  <use x="16.234375" y="575.566406" xlink:href="#r"/>
  <use x="19.550781" y="575.566406" xlink:href="#a"/>
  <use x="24.335938" y="575.566406" xlink:href="#f"/>
  <use x="28.234375" y="575.566406" xlink:href="#d"/>
  <use x="31.4375" y="575.566406" xlink:href="#q"/>
  <use x="34.753906" y="575.566406" xlink:href="#p"/>
  <use x="39.695312" y="575.566406" xlink:href="#o"/>
  <use x="43.113281" y="575.566406" xlink:href="#c"/>
  <use x="45.410156" y="575.566406" xlink:href="#d"/>
  <use x="48.613281" y="575.566406" xlink:href="#n"/>
  <use x="50.210938" y="575.566406" xlink:href="#a"/>
  <use x="53.371094" y="575.566406" xlink:href="#m"/>
  <use x="56.132812" y="575.566406" xlink:href="#b"/>
 </g>
</svg>
